<?xml version="1.0" encoding="UTF-8"?>
<svg width="1200pt" height="1200pt" version="1.1" viewBox="0 0 1200 1200" xmlns="http://www.w3.org/2000/svg">
 <path d="m210 247.5c-10-10-10-27.5 0-37.5 5-5 12.5-7.5 17.5-7.5s12.5 2.5 17.5 7.5l175 175v-132.5c0-15 10-25 25-25s25 10 25 25v192.5c0 2.5 0 7.5-2.5 10-2.5 5-7.5 10-12.5 12.5-2.5 2.5-7.5 2.5-10 2.5h-192.5c-15 0-25-10-25-25s10-25 25-25h132.5zm520 207.5c2.5 5 7.5 10 12.5 12.5 2.5 2.5 7.5 2.5 10 2.5h192.5c15 0 25-10 25-25s-10-25-25-25h-132.5l175-175c10-10 10-25 0-35-5-5-12.5-7.5-17.5-7.5s-12.5 2.5-17.5 7.5l-175 175v-132.5c0-15-10-25-25-25s-25 10-25 25v192.5c0 5 2.5 7.5 2.5 10zm-482.5 535 175-175v132.5c0 15 10 25 25 25s25-10 25-25v-192.5c0-2.5 0-7.5-2.5-10-2.5-5-7.5-10-12.5-12.5-2.5-2.5-7.5-2.5-10-2.5h-192.5c-15 0-25 10-25 25s10 25 25 25h132.5l-175 175c-10 10-10 25 0 35s25 10 35 0zm505-20c15 0 25-10 25-25v-132.5l175 175c10 10 25 10 35 0s10-25 0-35l-175-175h132.5c15 0 25-10 25-25s-10-25-25-25h-192.5c-2.5 0-7.5 0-10 2.5-5 2.5-10 7.5-12.5 12.5-2.5 2.5-2.5 7.5-2.5 10v192.5c0 15 12.5 25 25 25z" fill="#959595"/>
</svg>
