<?xml version="1.0" encoding="UTF-8"?>
<svg width="1200pt" height="1200pt" version="1.1" viewBox="0 0 1200 1200" xmlns="http://www.w3.org/2000/svg">
 <path d="m465 427.5c10 10 10 25 0 35-5 5-12.5 7.5-17.5 7.5s-12.5-2.5-17.5-7.5l-175-175v132.5c0 15-10 25-25 25s-25-10-25-25v-192.5c0-2.5 0-7.5 2.5-10 2.5-5 7.5-10 12.5-12.5 2.5 0 5-2.5 7.5-2.5h192.5c15 0 25 10 25 25s-10 25-25 25h-132.5zm530-207.5c-2.5-5-7.5-10-12.5-12.5-2.5-2.5-7.5-2.5-10-2.5h-192.5c-15 0-25 10-25 25s10 25 25 25h132.5l-175 175c-10 10-10 25 0 35 5 5 12.5 7.5 17.5 7.5s12.5-2.5 17.5-7.5l175-175v132.5c0 15 10 25 25 25s25-10 25-25v-195c0-2.5-2.5-5-2.5-7.5zm-567.5 515-175 175v-132.5c0-15-10-25-25-25s-25 10-25 25v192.5c0 2.5 0 7.5 2.5 10 2.5 5 7.5 10 12.5 12.5 2.5 2.5 7.5 2.5 10 2.5h192.5c15 0 25-10 25-25s-10-25-25-25h-132.5l175-175c10-10 10-25 0-35s-25-10-35 0zm545 20c-15 0-25 10-25 25v132.5l-175-175c-10-10-25-10-35 0s-10 25 0 35l175 175h-132.5c-15 0-25 10-25 25s10 25 25 25h192.5c2.5 0 7.5 0 10-2.5 5-2.5 10-7.5 12.5-12.5 2.5-2.5 2.5-7.5 2.5-10v-192.5c0-15-12.5-25-25-25z" fill="#959595"/>
</svg>
