<?xml version="1.0" encoding="UTF-8"?>
<svg width="1200pt" height="1200pt" version="1.1" viewBox="0 0 1200 1200" xmlns="http://www.w3.org/2000/svg">
 <path d="m60 224.39c0-26.391 21.609-46.781 46.781-46.781h986.39c26.391 0 46.781 21.609 46.781 46.781 0 26.391-21.609 46.781-46.781 46.781l-986.39 0.046875c-25.172 0-46.781-20.438-46.781-46.828zm1033.2 328.82h-986.44c-26.391 0-46.781 21.562-46.781 46.781 0 26.391 21.609 46.781 46.781 46.781h986.39c26.391 0 46.781-21.609 46.781-46.781 0.046875-26.391-21.562-46.781-46.734-46.781zm0 375.56h-986.44c-26.391 0-46.781 21.609-46.781 46.781 0 26.391 21.609 46.781 46.781 46.781h986.39c26.391 0 46.781-21.609 46.781-46.781 0.046875-26.344-21.562-46.781-46.734-46.781z" fill="#fff"/>
</svg>
