<?xml version="1.0" encoding="UTF-8"?>
<svg width="1200pt" height="1200pt" version="1.1" viewBox="0 0 1200 1200" xmlns="http://www.w3.org/2000/svg">
 <path d="m1118.9 81.086c-13.504-13.5-31.82-21.082-50.914-21.082s-37.41 7.582-50.914 21.082l-417.09 417.09-417.09-417.09c-18.199-18.152-44.691-25.227-69.516-18.562-24.824 6.6602-44.215 26.051-50.875 50.875-6.6641 24.824 0.41016 51.316 18.562 69.516l417.09 417.09-417.09 417.09c-18.152 18.199-25.227 44.691-18.562 69.516 6.6602 24.824 26.051 44.215 50.875 50.875 24.824 6.6641 51.316-0.41016 69.516-18.562l417.09-417.09 417.09 417.09c18.199 18.152 44.691 25.227 69.516 18.562 24.824-6.6602 44.215-26.051 50.875-50.875 6.6641-24.824-0.41016-51.316-18.562-69.516l-417.09-417.09 417.09-417.09c13.5-13.504 21.086-31.816 21.086-50.914s-7.5859-37.41-21.086-50.914z" fill="#fff"/>
</svg>
